<svg id="Camada_1" data-name="Camada 1" xmlns="http://www.w3.org/2000/svg" viewBox="0 0 771.25 751.48"><defs><style>.cls-1{fill:#0b1b2f;}</style></defs><path class="cls-1" d="M-1179.2.48a81.16,81.16,0,0,0-30.9,9.7c-12.9,7.6-24.4,21.8-29.4,36.3l-2.2,6.5-.3,319.5c-.3,356.7-.9,326.4,6.8,341.8,8.6,17.1,23.3,29.1,42.6,34.9,5.5,1.7,16.7,1.8,185.2,2.1l179.2.2V726l20.2.1,20.2.1.2,8.9c.1,4.9.2,10.6.3,12.6l.1,3.8h38v-107h41v-40h19.4c15.4,0,19.5.3,19.9,1.4.3.7.6,9.7.6,20v18.6h78.6l.3-60,.2-60h39.5v-40h-39.5v-40h39.6v-2.3c0-1.2.1-9.7.2-19l.2-16.7h39v-41h-39v40h-40v-40h-40v-40h40v-40h-40v-80h-40v39h-39v39.8l-3.1.6c-1.7.3-10.7.6-20,.6h-16.9v-6.3c0-3.4-.3-12.6-.7-20.5l-.6-14.2h-39.3l.1-19.5v-19.5h-39.5v40h40v39l-19.7.1h-19.8L-850.4,309l-22.7,24.3-16.8-17.2c-39.4-40.3-38.3-39.2-44.8-41.1a33.25,33.25,0,0,0-22.9,1.6c-5.1,2.6-9.3,7.1-114.6,125.4-25,28-51.5,57.8-58.9,66s-25.7,28.7-40.6,45.4l-27,30.3-.3-238.3c-.1-160.9.1-239.4.8-242,1.7-6.4,6.9-12,14.4-15.9l6.9-3.5,174.3-.3,174.4-.2v40h40v-40h199v40h40v-41h-39l-.2-21c-.2-11.6-.6-21-1-21H-789.2v42h-40.2l.4-21,.4-21h-169c-93,0-170-.2-171.1-.4A74.36,74.36,0,0,0-1179.2.48Zm510,304v20h-39.5l.3-20,.3-20h38.9Zm-39.8,25.3c.3,2.3.6,11.3.7,20l.2,15.7h-41.1v-40h39.7Zm.2,81.8c.3,3.4.6,12.2.6,19.5v13.3l-20,.3-20,.3v-39.5h38.7ZM-629,425l.3,19.5h-40.5v-39h39.9Zm-79.2,80v19.5h-40v-39h40Zm119,0v19.5h-40v-39h40Zm-40.2,79.7.2,19.8h-40v-40l19.8.2,19.7.3Zm-118.8.3v19.5h-40v-39h40Zm-40,80v19.5h-20c-15.3,0-20-.3-20-1.3,0-.6-.3-7.8-.7-15.8s-.3-16.2.1-18.3l.7-3.6h39.9Z" transform="translate(1242.15)"/><path class="cls-1" d="M-709.2,104v20.5h39v-41h-39Z" transform="translate(1242.15)"/><path class="cls-1" d="M-1084.8,99.48c-23.9,6.2-42.3,23.3-50.9,47-3.9,10.8-4.6,28.1-1.6,39.9,5.1,20.2,16.9,35.8,35.1,46.4,17.9,10.3,45.9,11.6,64.6,2.8,33.7-15.8,50.1-51.5,39.8-87.1-6.6-23-27.1-42.7-50.8-48.9C-1059,96.88-1074.7,96.78-1084.8,99.48Z" transform="translate(1242.15)"/><path class="cls-1" d="M-828.2,145.18V165l19.5-.2,19.6-.1.2-19.6.2-19.6h-39.5Z" transform="translate(1242.15)"/><path class="cls-1" d="M-629.2,145.18V165l20-.3,20-.3v-38.9h-40Z" transform="translate(1242.15)"/><path class="cls-1" d="M-549.2,145.48v20h39v-40h-39Z" transform="translate(1242.15)"/><path class="cls-1" d="M-747.7,185.48v20h38.5v-40h-38.5Z" transform="translate(1242.15)"/><path class="cls-1" d="M-589.2,225.48l.2,20h39.7l-.2-20-.2-20h-39.6Z" transform="translate(1242.15)"/><path class="cls-1" d="M-549.2,305.48v20h39v-40h-39Z" transform="translate(1242.15)"/><path class="cls-1" d="M-509.8,445.38c-.2.2-.4,9.4-.4,20.3v19.8h39V466c0-10.7.1-19.7.3-20C-470.7,445.28-509.2,444.78-509.8,445.38Z" transform="translate(1242.15)"/><path class="cls-1" d="M-549.2,584.48v20h39v-40h-39Z" transform="translate(1242.15)"/><path class="cls-1" d="M-549.2,664.48v20h39v-40h-39Z" transform="translate(1242.15)"/><path class="cls-1" d="M-708.2,705.18V725l19.5-.3,19.5-.3v-38.9h-39Z" transform="translate(1242.15)"/><path class="cls-1" d="M-628.2,705v19.5h38.5l.3-19.5.3-19.5h-39.1Z" transform="translate(1242.15)"/></svg>